<?xml version="1.0" encoding="utf-8"?>
<!-- Generator: Adobe Illustrator 25.0.1, SVG Export Plug-In . SVG Version: 6.00 Build 0)  -->
<svg version="1.1" id="レイヤー_1" xmlns="http://www.w3.org/2000/svg" xmlns:xlink="http://www.w3.org/1999/xlink" x="0px"
	 y="0px" viewBox="0 0 346.4 72.3" style="enable-background:new 0 0 346.4 72.3;" xml:space="preserve">
<style type="text/css">
	.st0{fill:url(#SVGID_1_);}
	.st1{fill:url(#SVGID_2_);}
	.st2{fill:#333333;}
</style>
<g>
	<g>
		<linearGradient id="SVGID_1_" gradientUnits="userSpaceOnUse" x1="41.3931" y1="46.4078" x2="41.3931" y2="-9.094947e-13">
			<stop  offset="0" style="stop-color:#D8E7F7"/>
			<stop  offset="6.119030e-02" style="stop-color:#CFE3F5"/>
			<stop  offset="0.163" style="stop-color:#B5D8F1"/>
			<stop  offset="0.2928" style="stop-color:#8CC7EA"/>
			<stop  offset="0.444" style="stop-color:#53B0E0"/>
			<stop  offset="0.5674" style="stop-color:#1F9AD7"/>
			<stop  offset="0.8652" style="stop-color:#006CBA"/>
			<stop  offset="0.9944" style="stop-color:#00599B"/>
		</linearGradient>
		<polygon class="st0" points="17.5,9.8 22.6,14.4 27.3,9.5 38,19.9 16.8,41.7 22.3,46.4 43.3,25.1 61.5,42.7 66,38 27.5,0 		"/>
		<linearGradient id="SVGID_2_" gradientUnits="userSpaceOnUse" x1="30.1389" y1="72.2677" x2="30.1389" y2="14.558">
			<stop  offset="0" style="stop-color:#D8E7F7"/>
			<stop  offset="6.119030e-02" style="stop-color:#CFE3F5"/>
			<stop  offset="0.163" style="stop-color:#B5D8F1"/>
			<stop  offset="0.2928" style="stop-color:#8CC7EA"/>
			<stop  offset="0.444" style="stop-color:#53B0E0"/>
			<stop  offset="0.5674" style="stop-color:#1F9AD7"/>
			<stop  offset="0.8652" style="stop-color:#006CBA"/>
			<stop  offset="0.9944" style="stop-color:#00599B"/>
		</linearGradient>
		<polygon class="st1" points="27.5,14.6 32.9,19.8 11.7,41.4 22.6,52.1 43.8,30.5 59,45.7 33.1,72.3 27.7,67.3 49.1,45.5 
			44.1,40.7 22.8,62.2 1.3,41.4 		"/>
	</g>
	<g>
		<path class="st2" d="M73.6,39.6c4.7-3,8.3-6.6,10.9-10.7H74.3v-2.4h11.6v-6h2.3c0.7,0.1,0.7,0.4,0.2,0.9v5.1h9.2v2.4h-9.2v12.8
			c0,1.8-0.8,2.6-2.5,2.6h-3.1l-0.4-2.4h2.2c0.9-0.1,1.3-0.6,1.3-1.4v-9.2c-2.8,4.1-6.1,7.5-10.1,10.3L73.6,39.6z"/>
		<path class="st2" d="M100.4,33.5v-2.4h24.4v2.4H100.4z"/>
		<path class="st2" d="M150,40.8l-2.2,1.9c-3.1-3.2-6-5.9-8.9-8.1c-2.8,3.1-6.1,5.8-9.7,8.2l-2.1-1.9c7.7-5,12.7-10.1,14.9-15.1
			l-11.9,0.8l-0.3-2.6l12.7-0.5l1.3-0.3l1.8,1.8c0.5,0.5,0.4,0.8-0.4,1c-1.4,2.4-2.8,4.6-4.4,6.7C143.8,34.9,146.9,37.7,150,40.8z"
			/>
		<path class="st2" d="M163,31.5H152v-2.4h22.4v2.4h-9v1.4c0,4.6-1.6,8.4-4.9,11.4l-2.2-1.6c3.1-2.4,4.6-5.6,4.6-9.7V31.5z
			 M156,24.8v-2.4h14.5v2.4H156z"/>
		<path class="st2" d="M177.4,33.5v-2.4h24.4v2.4H177.4z"/>
		<path class="st2" d="M209.8,33.2c-2.2-1.6-4-2.8-5.5-3.5l1.6-2.3c1.8,0.9,3.7,2.1,5.6,3.5L209.8,33.2z M226.6,30.3
			c-3.7,6-9.5,10.2-17.3,12.7c-0.2,0.9-0.6,0.9-1.1,0.1l-1.5-2.4c7.9-1.8,13.9-5.9,17.9-12.4L226.6,30.3z M213.1,26.8
			c-2-1.4-3.8-2.6-5.5-3.5L209,21c2,1.1,3.8,2.3,5.6,3.5L213.1,26.8z M219.5,21.2c1.2,1,2.5,2.2,3.7,3.5l-1.4,1.3
			c-1.2-1.3-2.5-2.5-3.8-3.6L219.5,21.2z M222.1,19.4c1.2,0.9,2.5,2.1,3.7,3.4l-1.4,1.4c-1.3-1.5-2.6-2.6-3.7-3.5L222.1,19.4z"/>
		<path class="st2" d="M235.7,44.9h-2.2V33.8c-0.7,1.9-1.8,3.6-3.2,5.1l-1.4-2.3c2.3-2.3,3.8-5.4,4.5-9.2h-3.6V25h3.7v-5.4h2.1
			c0.6,0.1,0.6,0.4,0.1,0.7V25h3.1v2.4h-3.1v3.2c1.5,0.9,2.7,2.1,3.7,3.4l-1.6,2.1c-0.8-1.3-1.5-2.3-2.1-2.8V44.9z M247.4,24.6h5V27
			h-5v3.4h6.9v2.4h-6.7c1.3,2.3,3.8,4.6,7.4,6.8l-1.3,2.5c-2.8-2-5-4.1-6.3-6.1v9h-2.2v-8.8c-1.5,2.6-3.6,4.8-6.3,6.7l-1.2-2.2
			c3.1-2.2,5.6-4.8,7.4-7.9h-6.3v-2.4h6.5V27h-3.1c-0.4,1-1.1,2-1.9,3l-1.8-1.9c1.3-1.4,2.4-3.5,3.2-6.2l2.2,0.5
			c0.4,0.2,0.4,0.4-0.2,0.5l-0.5,1.6h2.1v-4.9h2.1c0.6,0.1,0.6,0.3,0.1,0.7V24.6z"/>
		<path class="st2" d="M279,41c0.3,0,0.5-0.2,0.5-0.7l0.2-1.9l2.4,1.1l-0.4,2.6c-0.2,1.2-0.9,1.9-2,1.9c-2.2,0-4-1.5-5.6-4.5
			c-1.5-2.8-2.2-6.9-2.3-12h-13.5v-2.4h13.3v-5h2.4c0.7,0.1,0.8,0.4,0.1,0.9v4.2h7.7v2.4h-7.7c0.3,5.1,1,8.7,2.2,10.8
			C277.5,40.1,278.3,41,279,41z M272.2,40.4c-4.1,0.9-8.2,1.7-12.4,2.4c-0.1,0.7-0.4,0.7-0.8,0.2l-0.5-2.7c1.8-0.1,3.6-0.4,5.4-0.7
			v-6.2h-4.4v-2.1h10.8v2.1h-4.3v5.9c1.7-0.2,3.6-0.5,5.8-1L272.2,40.4z M277.3,20.7c1,0.5,2,1.2,3,2.1l-2,1.6
			c-0.7-0.7-1.7-1.4-2.8-2.1L277.3,20.7z"/>
		<path class="st2" d="M309.3,30.7c-1.2-0.3-2.9-1-4.9-2.2v2.3H292v-2.2c-2,1.4-3.8,2.3-5.6,2.8l-1-2.6c5.1-1.4,8.9-4.4,11.4-9
			l2.3,0.3c0.6,0.1,0.6,0.3,0.1,0.7c2.3,3.5,6.1,5.9,11.2,7.2L309.3,30.7z M304.8,42.3L289,44.1c-0.4,0.4-0.7,0.4-1,0.2l-0.8-2.7
			l4.5-0.2l3.1-5.6h-7.9v-2.4h22.4v2.4h-11.8l-3.3,5.5l9-0.7c-0.9-0.9-2-1.8-3.2-2.6l2-1.3c3.5,2.6,5.9,4.8,7.2,6.6l-2.3,1.4
			C306.3,43.8,305.6,43,304.8,42.3z M304.2,28.4c-2.6-1.4-4.6-3.5-6.2-6.2c-1.6,2.6-3.5,4.7-5.6,6.2H304.2z"/>
		<path class="st2" d="M320.4,24.7h2.3l0.4-0.4l1.6,1.6l-0.8,0.5c-0.9,1.7-2.1,3.5-3.6,5.4c1.8,0.6,3.4,1.4,4.8,2.3l-1.2,2.4
			c-1.2-1-2.4-1.9-3.6-2.5v10.8h-2.2V34c-1.3,1.2-2.7,2.2-4,3l-1-2.2c3.5-1.9,6.2-4.6,8.2-8h-7.2v-2.1h4V20h2.1
			c0.6,0.1,0.6,0.3,0.1,0.7V24.7z M332.4,21.5v5.8h5v2.4h-5v11.4h6v2.4h-15v-2.4h6.5V29.7h-4.7v-2.4h4.7v-6.7h2.4
			C333,20.8,333.1,21.1,332.4,21.5z"/>
	</g>
	<g>
		<path class="st2" d="M162.1,62.2l-1.5,0.8h-4.1l-1.5-0.8v-8.5l1.5-0.8h4.1l1.5,0.8V62.2z M157.9,54l-0.5,0.3v7.4l0.5,0.3h1.4
			l0.5-0.3v-7.4l-0.5-0.3H157.9z"/>
		<path class="st2" d="M163.2,58.5v-1.1h4.6v1.1H163.2z"/>
		<path class="st2" d="M172.9,54.2l-0.5-0.3h-0.9l-0.5,0.3V57l0.5,0.3h2.3l1.5,0.8v4.1l-1.5,0.8h-3.7l-1.5-0.8v-2.1h2.4v1.6l0.5,0.3
			h1l0.5-0.3v-3l-0.5-0.3h-2.3l-1.5-0.8v-3.9l1.5-0.8h3.6l1.5,0.8v2.1h-2.4V54.2z"/>
		<path class="st2" d="M180.7,53.9v9h-2.4v-9h-2.2v-1.1h6.8v1.1H180.7z"/>
		<path class="st2" d="M186.2,60.4l-0.5,2.6h-2.4l2.2-10.1h3.4l2.3,10.1h-2.5l-0.5-2.6H186.2z M187.3,54.2l-0.9,5.1h1.8L187.3,54.2z
			"/>
		<path class="st2" d="M192.3,53.7l1.5-0.8h3.9l1.5,0.8v2.1h-2.4v-1.6l-0.5-0.3h-1.1l-0.5,0.3v7.4l0.5,0.3h1.1l0.5-0.3v-2.8h-1.2
			v-1.1h3.5v4.5l-1.5,0.8h-3.9l-1.5-0.8V53.7z"/>
		<path class="st2" d="M200.6,52.9h5.8V54h-3.5v3.3h3v1.1h-3v3.5h3.5V63h-5.9V52.9z"/>
		<path class="st2" d="M211.6,53.7l1.5-0.8h3.6l1.5,0.8v2.3h-2.4v-1.7l-0.5-0.3h-0.9l-0.5,0.3v7.4l0.5,0.3h0.9l0.5-0.3v-1.7h2.4v2.3
			l-1.5,0.8h-3.6l-1.5-0.8V53.7z"/>
		<path class="st2" d="M226.5,62.2L225,63h-4.1l-1.5-0.8v-8.5l1.5-0.8h4.1l1.5,0.8V62.2z M222.3,54l-0.5,0.3v7.4l0.5,0.3h1.4
			l0.5-0.3v-7.4l-0.5-0.3H222.3z"/>
		<path class="st2" d="M227.9,63v-1.5h2.5V63H227.9z"/>
		<path class="st2" d="M232.6,64.4h-0.8l1.1-1.5h-1.1v-1.5h2.5v1.3L232.6,64.4z"/>
		<path class="st2" d="M235.7,63V52.9h2.4v9h3.1V63H235.7z"/>
		<path class="st2" d="M246.3,53.9v9h-2.4v-9h-2.2v-1.1h6.8v1.1H246.3z"/>
		<path class="st2" d="M256.6,53.7v8.5l-1.5,0.8h-5.5V52.9h5.5L256.6,53.7z M254.2,61.6v-7.4l-0.5-0.3h-1.8v7.9h1.8L254.2,61.6z"/>
		<path class="st2" d="M258,63v-1.5h2.5V63H258z"/>
	</g>
</g>
</svg>
